<mxfile host="app.diagrams.net" agent="Mozilla/5.0 (Windows NT 10.0; Win64; x64) AppleWebKit/537.36 (KHTML, like Gecko) Chrome/139.0.0.0 Safari/537.36" version="28.1.1">
  <diagram name="Page-1" id="9suY4JIQJENYd-3QamIk">
    <mxGraphModel dx="1426" dy="777" grid="1" gridSize="10" guides="1" tooltips="1" connect="1" arrows="1" fold="1" page="1" pageScale="1" pageWidth="850" pageHeight="1100" math="0" shadow="0">
      <root>
        <mxCell id="0" />
        <mxCell id="1" parent="0" />
        <mxCell id="RbsaDlX57cV3KOvRGJUV-1" value="&lt;div&gt;Float-IP&lt;/div&gt;&lt;div&gt;10.50.251.120&lt;/div&gt;&lt;div&gt;&lt;br&gt;&lt;/div&gt;&lt;div&gt;port open 10&lt;/div&gt;" style="whiteSpace=wrap;html=1;aspect=fixed;" parent="1" vertex="1">
          <mxGeometry x="100" y="120.5" width="110" height="110" as="geometry" />
        </mxCell>
        <mxCell id="RbsaDlX57cV3KOvRGJUV-2" value="ME" style="text;html=1;align=center;verticalAlign=middle;resizable=0;points=[];autosize=1;strokeColor=none;fillColor=none;" parent="1" vertex="1">
          <mxGeometry x="135" y="95" width="40" height="30" as="geometry" />
        </mxCell>
        <mxCell id="RbsaDlX57cV3KOvRGJUV-4" value="10.50.93.47&lt;div&gt;22,80&lt;/div&gt;&lt;div&gt;&lt;br&gt;&lt;/div&gt;&lt;div&gt;P/O&amp;nbsp;&lt;span style=&quot;background-color: transparent; color: light-dark(rgb(0, 0, 0), rgb(255, 255, 255));&quot;&gt;10471&lt;/span&gt;&lt;/div&gt;&lt;div&gt;&lt;br&gt;&lt;/div&gt;" style="whiteSpace=wrap;html=1;aspect=fixed;" parent="1" vertex="1">
          <mxGeometry x="390" y="118" width="115" height="115" as="geometry" />
        </mxCell>
        <mxCell id="RbsaDlX57cV3KOvRGJUV-5" value="STERLING" style="text;html=1;align=center;verticalAlign=middle;resizable=0;points=[];autosize=1;strokeColor=none;fillColor=none;" parent="1" vertex="1">
          <mxGeometry x="407.5" y="88" width="80" height="30" as="geometry" />
        </mxCell>
        <mxCell id="RbsaDlX57cV3KOvRGJUV-7" value="10.1.2.130/25" style="text;whiteSpace=wrap;html=1;" parent="1" vertex="1">
          <mxGeometry x="670" y="51" width="110" height="40" as="geometry" />
        </mxCell>
        <mxCell id="RbsaDlX57cV3KOvRGJUV-8" value="10.1.2.200&lt;div&gt;21,23,80&lt;/div&gt;&lt;div&gt;&lt;br&gt;&lt;/div&gt;&lt;div&gt;P/O 8976&lt;/div&gt;" style="whiteSpace=wrap;html=1;aspect=fixed;" parent="1" vertex="1">
          <mxGeometry x="660" y="118" width="120" height="120" as="geometry" />
        </mxCell>
        <mxCell id="RbsaDlX57cV3KOvRGJUV-10" value="10.1.2.130" style="text;html=1;align=center;verticalAlign=middle;resizable=0;points=[];autosize=1;strokeColor=none;fillColor=none;" parent="1" vertex="1">
          <mxGeometry x="505" y="160.5" width="80" height="30" as="geometry" />
        </mxCell>
        <mxCell id="2Q3JclFvfD3LQ6WmqOtR-1" value="LANA" style="text;html=1;align=center;verticalAlign=middle;resizable=0;points=[];autosize=1;strokeColor=none;fillColor=none;" vertex="1" parent="1">
          <mxGeometry x="695" y="88" width="50" height="30" as="geometry" />
        </mxCell>
        <mxCell id="2Q3JclFvfD3LQ6WmqOtR-3" value="10.2.5.20&lt;div&gt;21,22,80&lt;/div&gt;" style="whiteSpace=wrap;html=1;aspect=fixed;" vertex="1" parent="1">
          <mxGeometry x="940" y="114" width="128" height="128" as="geometry" />
        </mxCell>
        <mxCell id="2Q3JclFvfD3LQ6WmqOtR-4" value="10.2.5.30/25" style="text;html=1;align=center;verticalAlign=middle;resizable=0;points=[];autosize=1;strokeColor=none;fillColor=none;" vertex="1" parent="1">
          <mxGeometry x="959" y="40" width="90" height="30" as="geometry" />
        </mxCell>
        <mxCell id="2Q3JclFvfD3LQ6WmqOtR-6" value="" style="shape=flexArrow;endArrow=classic;html=1;rounded=0;exitX=0.003;exitY=0.69;exitDx=0;exitDy=0;exitPerimeter=0;" edge="1" parent="1" source="RbsaDlX57cV3KOvRGJUV-8">
          <mxGeometry width="50" height="50" relative="1" as="geometry">
            <mxPoint x="670" y="220" as="sourcePoint" />
            <mxPoint x="505" y="210" as="targetPoint" />
          </mxGeometry>
        </mxCell>
        <mxCell id="2Q3JclFvfD3LQ6WmqOtR-7" value="" style="shape=flexArrow;endArrow=classic;html=1;rounded=0;entryX=0;entryY=0.75;entryDx=0;entryDy=0;" edge="1" parent="1" target="RbsaDlX57cV3KOvRGJUV-4">
          <mxGeometry width="50" height="50" relative="1" as="geometry">
            <mxPoint x="210" y="200" as="sourcePoint" />
            <mxPoint x="360" y="200" as="targetPoint" />
          </mxGeometry>
        </mxCell>
        <mxCell id="2Q3JclFvfD3LQ6WmqOtR-8" value="10.50.93.47" style="text;html=1;align=center;verticalAlign=middle;resizable=0;points=[];autosize=1;strokeColor=none;fillColor=none;" vertex="1" parent="1">
          <mxGeometry x="300" y="160.5" width="90" height="30" as="geometry" />
        </mxCell>
        <mxCell id="2Q3JclFvfD3LQ6WmqOtR-9" value="Cheryl" style="text;html=1;align=center;verticalAlign=middle;resizable=0;points=[];autosize=1;strokeColor=none;fillColor=none;" vertex="1" parent="1">
          <mxGeometry x="970" y="89" width="60" height="30" as="geometry" />
        </mxCell>
        <mxCell id="2Q3JclFvfD3LQ6WmqOtR-10" value="" style="shape=flexArrow;endArrow=classic;html=1;rounded=0;entryX=0;entryY=0.75;entryDx=0;entryDy=0;" edge="1" parent="1" target="2Q3JclFvfD3LQ6WmqOtR-3">
          <mxGeometry width="50" height="50" relative="1" as="geometry">
            <mxPoint x="780" y="220" as="sourcePoint" />
            <mxPoint x="960" y="210" as="targetPoint" />
          </mxGeometry>
        </mxCell>
        <mxCell id="2Q3JclFvfD3LQ6WmqOtR-11" value="10.3.9.39&lt;div&gt;21,23&lt;/div&gt;" style="whiteSpace=wrap;html=1;aspect=fixed;" vertex="1" parent="1">
          <mxGeometry x="1275" y="125" width="130" height="130" as="geometry" />
        </mxCell>
        <mxCell id="2Q3JclFvfD3LQ6WmqOtR-12" value="10.3.9.33/27" style="text;html=1;align=center;verticalAlign=middle;resizable=0;points=[];autosize=1;strokeColor=none;fillColor=none;" vertex="1" parent="1">
          <mxGeometry x="1195" y="48" width="90" height="30" as="geometry" />
        </mxCell>
        <mxCell id="2Q3JclFvfD3LQ6WmqOtR-13" value="Malory" style="text;html=1;align=center;verticalAlign=middle;resizable=0;points=[];autosize=1;strokeColor=none;fillColor=none;" vertex="1" parent="1">
          <mxGeometry x="1300" y="104" width="60" height="30" as="geometry" />
        </mxCell>
        <mxCell id="2Q3JclFvfD3LQ6WmqOtR-14" value="" style="shape=flexArrow;endArrow=classic;html=1;rounded=0;" edge="1" parent="1">
          <mxGeometry width="50" height="50" relative="1" as="geometry">
            <mxPoint x="1070" y="210" as="sourcePoint" />
            <mxPoint x="1270" y="180" as="targetPoint" />
          </mxGeometry>
        </mxCell>
      </root>
    </mxGraphModel>
  </diagram>
</mxfile>
